<svg xmlns="http://www.w3.org/2000/svg" width="923.661" height="240" viewBox="0 0 923.661 240"><path d="M125.054 87.563v-.085 62.527c0 20.706-16.785 37.491-37.49 37.491s-37.491-16.785-37.491-37.49V49.816L0 100.017v49.988c0 48.36 39.204 87.564 87.564 87.564 48.36 0 87.563-39.204 87.563-87.564V87.478a37.49 37.49 0 0 1 22.008-34.121l-36.253-36.254a87.222 87.222 0 0 0-35.828 70.46zm282.567 137.978V165.83h-8.19v29.515a23.459 23.459 0 0 0-16.378-7.166c-12.29 1.126-22.025 10.862-23.15 23.151-1.29 14.075 9.076 26.53 23.15 27.818a22.18 22.18 0 0 0 17.06-8.53 33.014 33.014 0 0 0 .726 7.037l7.592.17a63.423 63.423 0 0 1-.81-12.283zm-8.19-1.066a21.027 21.027 0 0 1-15.567 7.464c-8.787 0-15.952-7.293-15.952-18.425 0-11.047 7.165-18.213 15.952-18.213a22.861 22.861 0 0 1 15.567 7.464v21.71zm72.039-14.472c-.628-12.705-11.436-22.495-24.141-21.867-.375-.004-.75 0-1.125.013-13.866.472-24.724 12.095-24.253 25.962-.039.742-.043 1.485-.013 2.228.537 13.086 11.58 23.26 24.666 22.723a34.377 34.377 0 0 0 23.416-9l-5.46-5.288a24.269 24.269 0 0 1-17.06 7.037 16.5 16.5 0 0 1-1.262.008c-9.135-.292-16.304-7.934-16.012-17.069h41.244c.051-.823.051-1.65 0-2.473a23.05 23.05 0 0 0 0-2.274zm-40.732-1.522a16.42 16.42 0 0 1 16.165-13.308c7.293 0 15.567 4.308 15.567 13.308h-31.732zm70.204-31.818h27.34v60.991h16.506v-60.991h27.211v-14.331h-71.057v14.33zm118.7-16.635c-23.971 0-42.652 17.445-42.652 39.794s18.766 40.135 42.651 40.135c23.885 0 43.036-18.212 43.036-40.135s-19.151-39.794-43.036-39.794zm0 65.77c-14.205 0-25.72-11.516-25.72-25.72 0-14.204 11.515-25.719 25.72-25.719 14.203 0 25.718 11.515 25.718 25.72 0 14.203-11.515 25.718-25.719 25.718zm109.912-15.228c0 9.938-8.189 15.227-17.87 15.227s-17.659-5.289-17.659-15.227v-48.238h-16.591v48.238c0 18.81 14.16 29.43 34.121 29.43s34.505-10.62 34.505-29.43v-48.238h-16.506v48.238zm108.292-24.482a22.52 22.52 0 0 0-6.227-15.567 29.387 29.387 0 0 0-22.605-8.19h-41.756v75.323l16.463.085v-27.68h22.392l15.227 27.68h18.937l-17.657-30.325a23.075 23.075 0 0 0 15.226-21.326zm-16.6.266c-.235 5.554-4.93 9.866-10.483 9.63h-26.999v-19.705l25.847-.043a11.26 11.26 0 0 1 9 3.242 9.127 9.127 0 0 1 2.635 6.876zm67.228 4.469c-9.768-.81-19.705-1.535-19.705-7.976s6.696-9.213 14.202-9.213a45.637 45.637 0 0 1 26.402 8.061l9.468-11.6a66.664 66.664 0 0 0-35.784-10.024c-14.075 0-31.136 5.673-31.136 23.885 0 19.15 19.364 21.027 35.87 22.05 11.303.94 19.023 2.773 19.023 9.81s-7.507 10.749-17.06 10.749a51.181 51.181 0 0 1-32.288-12.796l-9.34 11.303a63.253 63.253 0 0 0 41.414 14.885c18.681 0 34.121-7.293 34.121-25.846 0-20.772-21.454-22.35-35.187-23.288z" fill="#2f3e47"/><path d="M275.188 26.316C244.75-4.862 195.982-8.812 160.924 17.061l36.254 36.253c18.82-8.574 41.029-.267 49.603 18.553a37.448 37.448 0 0 1 3.37 15.569v150.048h49.945V87.478c-.024-20.705 16.743-37.51 37.448-37.533h31.093L418.539 0h-80.782a87.393 87.393 0 0 0-62.57 26.316zm130.215 97.715V85.943l-8.573.128v36.424a22.563 22.563 0 0 1-16.592 8.53 11.05 11.05 0 0 1-.342.03c-6.18.44-11.545-4.214-11.984-10.394V85.985h-8.829v34.676c0 10.45 8.658 18 19.876 18a24.226 24.226 0 0 0 18.766-9.384 38.39 38.39 0 0 0 .768 7.848h7.805a67.561 67.561 0 0 1-.895-13.094zm46.063-39.752a24.482 24.482 0 0 0-18.894 9.512 31.178 31.178 0 0 0-1.195-7.848h-7.975a60.39 60.39 0 0 1 1.407 12.795v38.387l8.957-.256v-36.425a22.435 22.435 0 0 1 16.591-8.53c.125-.012.25-.022.374-.03 6.206-.395 11.558 4.316 11.953 10.522v34.676h8.53v-34.676c-.005-.358-.02-.716-.046-1.073-.731-10.15-9.552-17.785-19.702-17.054zm42.566-22.349a5.417 5.417 0 0 0-5.673 5.246 5.331 5.331 0 0 0 5.673 5.246c.048.003.096.006.143.007a5.46 5.46 0 0 0 5.658-5.253l-.003-.057a5.502 5.502 0 0 0-5.798-5.189zm-4.265 75.195h8.53V85.943h-8.53v51.182zm47.898-11.9h-.64l-16.293-39.282h-9.81l22.392 51.182h7.635l22.477-51.182h-8.956l-16.805 39.282zm86.156-17.447c-.578-13.555-12.035-24.076-25.591-23.499-.418-.005-.837 0-1.255.015-14.784.52-26.348 12.925-25.829 27.709a25.28 25.28 0 0 0-.013 2.404c.585 13.956 12.373 24.795 26.33 24.21a36.68 36.68 0 0 0 24.993-9.596l-5.8-5.843a25.847 25.847 0 0 1-18.34 7.506c-.45.02-.9.023-1.35.008-9.746-.316-17.392-8.473-17.076-18.22h43.931c.05-.867.05-1.735 0-2.602.03-.697.03-1.395 0-2.092zm-43.078-2.002a17.487 17.487 0 0 1 17.06-14.16c7.763 0 16.379 4.563 16.592 14.16h-33.652zm81.635-21.497c-7.55 0-12.113 5.247-15.61 10.493a37.702 37.702 0 0 0-1.195-8.83h-8.06a53.872 53.872 0 0 1 1.535 12.796v38.387l8.573-.043V102.15c3.198-4.35 7.25-9.383 12.795-9.383 2.441.027 4.824.752 6.867 2.09l2.858-7.976a10.578 10.578 0 0 0-7.763-2.602zm39.069 21.667c-5.971-.213-14.502-.767-14.502-6.994 0-5.375 6.313-7.55 12.326-7.55a40.177 40.177 0 0 1 19.322 5.673l3.241-6.483a46.918 46.918 0 0 0-22.818-6.313c-9.682 0-20.814 3.84-20.814 15.824 0 12.753 12.54 13.649 23.117 14.288 6.227.299 15.397.981 15.397 8.061 0 6.1-6.867 9.256-15.397 9.256a38.002 38.002 0 0 1-21.54-7.464l-3.369 6.568a42.652 42.652 0 0 0 25.122 7.976c13.307 0 24.013-5.46 24.013-17.36 0-14.287-15.141-15.055-24.098-15.482zm38.642 31.179h8.53V85.943h-8.53v51.182zm4.265-75.195a5.417 5.417 0 0 0-5.673 5.246 5.331 5.331 0 0 0 5.673 5.246c.048.003.095.006.143.007a5.46 5.46 0 0 0 5.658-5.253l-.003-.057a5.502 5.502 0 0 0-5.798-5.189zm42.481 69.351a6.397 6.397 0 0 1-7.08-6.867V92.682h15.397v-6.74h-15.568V70.46h-8.53v15.483h-10.023v6.781h9.98v31.733c-.056.664-.063 1.33-.02 1.995.474 7.382 6.842 12.98 14.223 12.507 3.885.052 7.727-.81 11.218-2.517l-1.067-6.781a23.288 23.288 0 0 1-8.53 1.62zm71.228-21.41c.03-.698.03-1.396 0-2.093-.578-13.555-12.035-24.076-25.59-23.499-.405-.004-.81.001-1.213.015-14.784.52-26.348 12.925-25.829 27.709a25.28 25.28 0 0 0-.013 2.404c.585 13.956 12.373 24.795 26.33 24.21a36.68 36.68 0 0 0 24.993-9.596l-5.758-5.843a25.847 25.847 0 0 1-18.34 7.506c-.45.02-.9.023-1.349.008-9.747-.316-17.392-8.473-17.077-18.22h43.846c.052-.867.052-1.735 0-2.602zm-43.035-4.095a17.487 17.487 0 0 1 17.06-14.16c7.763 0 16.378 4.563 16.592 14.16h-33.652zm30.325-44.187h-9.938l-9.255 15.909h7.848l11.345-15.91z" fill="#00a99b"/></svg>